<svg width="53" height="60" viewBox="0 0 53 60" fill="none" xmlns="http://www.w3.org/2000/svg">
<path d="M31.4194 10C42.9644 10 52.3661 18.9725 52.3661 30.0116C52.3661 41.0275 42.9644 50 31.4194 50C19.8744 50 10.4727 41.0275 10.4727 30.0116C10.4727 18.9725 19.8744 10 31.4194 10ZM29.0336 22.0598C28.5888 22.0598 28.1642 22.1563 27.7598 22.3493C27.2543 22.6194 26.8499 23.0439 26.6275 23.5456C26.486 23.8929 26.2636 24.9349 26.2636 24.9542C26.0412 26.0926 25.9199 27.945 25.9199 29.9904C25.9199 31.9411 26.0412 33.7144 26.2232 34.8722C26.2434 34.8915 26.4658 36.1843 26.7084 36.6281C27.1532 37.4385 28.0226 37.9402 28.9527 37.9402H29.0336C29.6401 37.9209 30.9139 37.4192 30.9139 37.3999C33.0571 36.5509 37.2829 33.9074 38.9813 32.1515L39.1026 32.0357C39.325 31.8234 39.608 31.4954 39.6687 31.4182C39.9922 31.013 40.154 30.5113 40.154 30.0116C40.154 29.4501 39.972 28.9291 39.6283 28.5046C39.5474 28.4274 39.2441 28.0994 38.961 27.8292C37.3031 26.1312 32.9763 23.3526 30.7117 22.5036C30.368 22.3705 29.4986 22.0791 29.0336 22.0598Z" fill="#5F6064"/>
<path fill-rule="evenodd" clip-rule="evenodd" d="M31.4202 0C14.2078 0 0.0947266 13.3453 0.0947266 30C0.0947266 46.6547 14.2078 60 31.4202 60V56C16.2406 56 4.09473 44.2732 4.09473 30C4.09473 15.7268 16.2406 4 31.4202 4V0Z" fill="#FF6600"/>
</svg>
