<svg width="77" height="77" viewBox="0 0 77 77" fill="none" xmlns="http://www.w3.org/2000/svg">
<path d="M51.4251 6.80685C51.2722 7.76271 51.1957 8.71856 51.1957 9.67442C51.1957 18.2771 58.1543 25.232 66.7188 25.232C67.6747 25.232 68.5923 25.1211 69.5482 24.9681V55.8194C69.5482 68.7846 61.9013 76.4697 48.9016 76.4697H20.6503C7.64686 76.4697 0 68.7846 0 55.8194V27.5298C0 14.5302 7.64686 6.80685 20.6503 6.80685H51.4251ZM52.1936 30.0533C51.1575 29.9386 50.129 30.3974 49.5134 31.2386L40.2645 43.2059L29.6698 34.8708C29.0198 34.3738 28.2551 34.1788 27.4904 34.2591C26.7296 34.3738 26.0414 34.7905 25.5787 35.4023L14.2652 50.1263L14.032 50.4704C13.382 51.6901 13.6879 53.2577 14.8349 54.1027C15.3702 54.4468 15.9437 54.6762 16.5937 54.6762C17.4769 54.7144 18.3142 54.2518 18.8495 53.5291L28.4463 41.1757L39.3431 49.3616L39.6872 49.5872C40.9107 50.2372 42.4401 49.9351 43.3194 48.7843L54.3691 34.5267L54.2162 34.6032C54.828 33.762 54.9427 32.6915 54.5221 31.7356C54.1053 30.7797 53.1839 30.1298 52.1936 30.0533ZM67.2545 0C72.3396 0 76.4689 4.1293 76.4689 9.21446C76.4689 14.2996 72.3396 18.4289 67.2545 18.4289C62.1693 18.4289 58.04 14.2996 58.04 9.21446C58.04 4.1293 62.1693 0 67.2545 0Z" fill="black"/>
</svg>
